<svg xmlns="http://www.w3.org/2000/svg" viewBox="2 4 24 24" xml:space="preserve" fill="#ffffff">
	<path d="M9.8,22.3c-1.2,0-2.1,0.9-2.1,2.1s0.9,2.1,2.1,2.1s2.1-0.9,2.1-2.1S11,22.3,9.8,22.3z M3.5,5.5v2.1h2.1l3.8,7.9L8,18.1
		c-0.2,0.3-0.3,0.6-0.3,1c0,1.2,0.9,2.1,2.1,2.1h12.6v-2.1H10.3c-0.1,0-0.3-0.1-0.3-0.3l0-0.1L11,17h7.8c0.8,0,1.5-0.4,1.8-1.1
		l3.7-6.8c0.1-0.1,0.1-0.3,0.1-0.5c0-0.6-0.5-1-1-1H7.9L7,5.5C7,5.5,3.5,5.5,3.5,5.5z M20.3,22.3c-1.2,0-2.1,0.9-2.1,2.1
		s0.9,2.1,2.1,2.1s2.1-0.9,2.1-2.1S21.4,22.3,20.3,22.3z"/>
</svg>